<?xml version="1.0" encoding="UTF-8" standalone="no"?>
<!-- Created with Inkscape (http://www.inkscape.org/) -->

<svg
   width="188.02097mm"
   height="192.43512mm"
   viewBox="0 0 188.02097 192.43512"
   version="1.1"
   id="svg69758"
   inkscape:version="1.2.2 (b0a84865, 2022-12-01)"
   sodipodi:docname="sts.svg"
   xmlns:inkscape="http://www.inkscape.org/namespaces/inkscape"
   xmlns:sodipodi="http://sodipodi.sourceforge.net/DTD/sodipodi-0.dtd"
   xmlns="http://www.w3.org/2000/svg"
   xmlns:svg="http://www.w3.org/2000/svg">
  <sodipodi:namedview
     id="namedview69760"
     pagecolor="#ffffff"
     bordercolor="#000000"
     borderopacity="0.25"
     inkscape:showpageshadow="2"
     inkscape:pageopacity="0.0"
     inkscape:pagecheckerboard="0"
     inkscape:deskcolor="#d1d1d1"
     inkscape:document-units="mm"
     showgrid="false"
     inkscape:zoom="0.2102413"
     inkscape:cx="-411.432"
     inkscape:cy="347.22007"
     inkscape:window-width="1309"
     inkscape:window-height="456"
     inkscape:window-x="0"
     inkscape:window-y="25"
     inkscape:window-maximized="0"
     inkscape:current-layer="layer1" />
  <defs
     id="defs69755" />
  <g
     inkscape:label="Layer 1"
     inkscape:groupmode="layer"
     id="layer1"
     transform="translate(-10.442916,-56.057862)">
    <g
       id="g644"
       transform="matrix(0.46519112,0,0,-0.46519112,-945.20509,804.2737)">
      <path
         d="m 2139.3334,1244.0401 c 2.9452,-15.9815 2.5005,-42.8919 6.7275,-49.3038 1.1191,35.8066 -4.0683,68.1159 -5.1789,102.4982 l 7.0192,-39.4353 c 0.078,-0.3844 0.591,-2.4185 0.7795,-2.8145 1.6135,-3.3874 0.5729,-1.8295 2.9358,-4.0967 0.3382,81.2319 -17.4642,151.9022 -43.1399,219.7231 -9.9564,26.2992 -12.7094,34.8264 -26.2723,58.077 -3.081,5.2818 -6.5393,12.4226 -12.9252,14.4346 -10.3535,3.2616 -16.126,-3.1224 -14.771,-13.3364 0.7104,-5.3555 21.3384,-35.8353 28.9128,-55.6036 14.0939,-36.7843 16.162,-38.2898 29.2572,-81.9422 18.4199,-61.4027 19.5322,-85.7566 26.6553,-148.2004"
         style="fill:#201e1e;fill-opacity:1;fill-rule:evenodd;stroke:none"
         id="path646" />
      <path
         d="m 2356.0064,1398.6414 -4.1131,-1.3445 -13.7542,-3.3301 c -0.2682,-0.1724 -31.7384,-12.5062 -32.8349,-12.7843 -4.7673,-3.7307 -9.1151,-4.9323 -16.5858,-4.3203 -13.1116,3.2148 -19.3291,9.0888 -35.57,9.8391 -15.7081,1.0715 -34.2368,-4.6344 -47.0664,-9.2789 -5.241,-1.8975 -36.3674,-13.1871 -39.3052,-18.1925 l 12.1493,5.0082 c 3.945,3.9269 34.5608,13.7486 42.5551,16.1422 l 11.446,2.0659 c 8.0317,2.1994 24.6668,1.7444 31.93,-1.2263 l 3.4013,-0.7494 c 7.9912,-2.4052 17.2021,-8.3461 26.1261,-7.5691 8.8911,0.7741 17.4665,9.3577 25.0486,9.2676 4.9417,4.4708 23.3394,9.3379 33.533,11.8871 5.2229,1.5516 12.6579,3.9398 17.8767,3.05 1.3488,0.8759 -0.5655,0.18 2.7978,1.3017 0.3881,0.1293 1.9622,0.5383 2.0444,0.5559 2.3224,0.4986 3.562,0.4343 5.9119,0.5882 16.742,4.1105 43.8333,3.132 61.6626,2.4006 l 14.8003,-1.4765 0.4328,20.6889 c -1.7387,4.4158 -2.7337,26.2999 -3.7326,33.3856 -2.7862,19.768 -8.0147,40.7429 -14.5075,59.5077 -4.1578,12.0152 -9.2395,23.4995 -14.5984,34.8735 -6.8613,13.6897 -13.0187,24.5469 -21.1269,37.3576 -3.1402,4.9617 -5.9661,9.7055 -9.5442,13.176 2.5239,-10.933 53.3914,-67.9102 62.1238,-197.6726 -8.1193,0.2925 -16.2732,2.0038 -25.1717,2.3972 -9.265,0.4093 -18.1069,0.599 -27.417,0.1834 -24.7257,-1.1038 -35.1405,-4.8396 -48.5118,-5.7319"
         style="fill:#030303;fill-opacity:1;fill-rule:evenodd;stroke:none"
         id="path648" />
      <path
         d="m 2276.7596,1595.736 c -3.5872,-1.8748 -40.3574,-14.9717 -47.7005,-16.6799 -1.8148,1.3465 -1.7521,1.5361 -3.242,3.0943 -0.5658,0.5922 -1.2133,1.2898 -1.6997,1.8275 -28.9749,32.023 -92.2141,-9.5414 -122.0819,-31.6613 -5.4752,-4.055 -12.21,-9.0746 -16.7548,-13.1485 30.0546,20.5367 58.5309,43.8338 95.457,49.3577 23.3663,1.0083 35.0405,-4.1403 50.5281,-22.1958 5.7339,-7.4291 10.1288,-6.5373 1.5463,7.8176 4.3186,4.487 30.6672,14.2234 38.6844,15.9687 l 17.8711,5.7492 c 6.6245,4.284 41.8697,9.4933 52.1033,10.3669 11.3105,0.9661 40.2477,1.6467 51.404,-4.5071 l 1.4945,-0.8895 c -3.153,4.3118 -3.7565,3.8024 -9.8952,4.9652 -22.0921,4.185 -45.9465,2.891 -68.245,-0.807 -13.6987,-2.272 -26.2369,-6.8177 -39.4696,-9.258"
         style="fill:#030303;fill-opacity:1;fill-rule:evenodd;stroke:none"
         id="path650" />
      <g
         id="g652">
        <path
           d="m 2410.8114,1466.3526 c 1.2008,-15.5435 2.4659,-31.1644 3.7633,-46.8369 0.4181,-4.7588 1.0553,-5.9167 4.352,-7.1025 1.8156,-0.6528 3.7211,-1.0828 5.6112,-1.0593 1.6631,0.021 2.4149,0.6191 2.2502,1.3791 -0.066,0.3143 -0.3541,0.4909 -0.7694,0.6641 -2.5857,0.9312 -2.7816,1.5582 -3.463,7.4435 -1.6354,18.2197 -3.2072,36.5202 -4.684,54.8235 -0.3169,4.0238 -1.0457,4.8214 -4.4368,5.6775 -2.6396,0.6664 -5.2393,1.6064 -7.882,2.4202 -1.7606,0.542 -2.4004,0.4607 -2.3219,-0.3002 0.024,-0.2375 0.1948,-0.4691 0.7061,-0.7191 1.2155,-0.7838 1.9494,-1.8187 2.0279,-2.9228 0.064,-0.8943 -0.2656,-2.7482 -0.9232,-4.163 -4.5592,-11.6946 -9.023,-23.3864 -13.3858,-35.7344 -2.3023,13.8266 -4.5694,27.2588 -6.7082,40.5366 -0.5683,3.5952 -1.1367,3.9274 -5.0153,2.2351 -2.4364,-1.0633 -4.8676,-2.1606 -7.2655,-3.3083 -1.631,-0.7807 -2.4718,-1.4905 -2.3082,-2.0659 0.034,-0.2628 0.2574,-0.362 0.7341,-0.2435 1.4933,0.3833 2.418,-0.3013 2.5277,-1.6704 0.065,-0.8139 -0.052,-1.5302 -0.6381,-3.9708 -4.3772,-18.8583 -8.5314,-37.7107 -12.5912,-56.4812 -0.2458,-1.1662 -0.4609,-2.1736 -0.3932,-2.6988 0.01,-1.2388 0.9944,-1.2334 3.439,-0.064 1.9959,0.9544 3.9881,1.9199 5.9953,2.8517 1.6727,0.7761 2.2862,1.3283 2.213,2.0369 -0.03,0.2895 -0.2251,0.2838 -0.7977,0.2155 -1.112,-0.2676 -1.9488,0.3948 -2.0806,1.4984 -0.072,0.6035 0.053,1.3983 0.4198,3.3851 3.0059,14.9992 6.0752,30.0266 9.2401,45.0037 2.5591,-14.1358 5.1823,-28.3487 7.869,-42.5078 0.3974,-2.0183 0.6701,-2.1277 2.8123,-1.3465 0.9065,0.3306 1.9077,0.5074 2.8612,0.4737 1.9823,-0.071 1.9755,-0.1573 2.7261,1.6027 5.2444,13.6636 10.6504,27.0417 16.1158,40.9485 z m -78.734,-37.412 c 5.2045,2.2241 10.414,4.5936 15.6419,7.0682 4.2248,1.9999 4.7551,2.6337 5.1766,5.834 0.061,0.3447 0.154,0.716 0.2152,1.0341 0.027,0.6596 0.057,1.1613 0.02,1.5293 -0.1,0.9723 -0.8067,1.0111 -2.6433,0.1119 -5.7438,-2.8128 -11.5466,-5.5332 -17.2896,-8.0883 0.7517,5.8189 1.5672,11.6129 2.4463,17.435 5.6145,2.6836 11.2634,5.4672 16.9373,8.316 4.5382,2.2791 5.2925,3.1493 5.7767,6.4834 0.03,0.2642 0.091,0.5295 0.1531,0.8212 -0.01,0.6585 0.1119,1.1636 0.084,1.5307 -0.077,1.0012 -0.7776,1.0171 -2.5481,0.1148 -9.8677,-5.0286 -19.7427,-9.9567 -29.6575,-14.4348 -1.6977,-0.7668 -2.4412,-1.3054 -2.3091,-1.9344 0.034,-0.2888 0.1933,-0.2846 0.7968,-0.1363 1.4939,0.3308 2.5385,-0.4063 2.6893,-1.956 0.056,-0.5791 -0.037,-1.5318 -0.2631,-3.0906 -2.4055,-16.5665 -4.6842,-32.8881 -6.9171,-48.9994 -0.1185,-1.1894 -0.1726,-2.4301 -0.1046,-3.0339 0.2047,-1.813 1.5931,-2.2748 4.7537,-1.2671 7.4157,2.3644 14.8501,5.2019 22.2214,8.4076 4.6556,2.0245 5.3903,2.9143 5.813,5.9303 0.3036,1.9324 0.5434,3.8892 0.8146,5.8731 -0.034,0.2889 0.016,0.5777 -0.01,0.6852 -0.045,0.2338 -0.3069,0.3586 -0.6066,0.2205 -0.432,-0.199 -0.6641,-0.5714 -1.0097,-1.1871 -0.9697,-2.2403 -1.7702,-2.9191 -6.1392,-4.8586 -5.753,-2.5537 -11.5518,-4.8484 -17.3297,-7.0092 1.0202,8.1717 2.1357,16.3726 3.2828,24.6004 z m -27.8305,13.2356 c 3.5583,0.9405 7.1974,1.9885 10.7362,3.2184 4.1142,1.4298 4.4113,1.8859 5.0522,5.4879 0.1806,1.402 0.4238,2.8582 0.6673,4.3407 0.062,0.2123 0.029,0.3696 0.027,0.6332 0,0.3425 -0.1273,0.4607 -0.3215,0.3864 -0.4722,-0.1808 -0.82,-0.5 -1.328,-1.2223 -1.0978,-1.561 -1.7773,-2.1574 -6.3711,-3.6527 -8.8441,-2.8783 -17.7767,-4.8943 -26.729,-6.0001 -3.6462,-0.4502 -4.6401,-1.0494 -5.158,-4.1205 -0.214,-1.1656 -0.4277,-2.3575 -0.61,-3.522 -0.062,-0.1862 -0.083,-0.3464 -0.06,-0.5023 0.044,-0.2923 0.2906,-0.5193 0.5771,-0.5114 0.3501,0.01 0.6982,0.2824 1.0449,0.7138 0.9145,1.1846 2.0922,1.5432 5.5576,1.8383 2.8979,0.2469 5.7569,0.7106 8.6511,1.1321 -2.34,-14.665 -4.6497,-29.0389 -6.867,-43.0945 -0.2117,-1.4553 -0.3305,-2.7502 -0.2613,-3.3279 0.2024,-1.6812 1.5157,-2.4486 4.0623,-2.4982 1.9432,-0.038 3.8537,-0.069 5.7626,0.025 1.6877,0.083 2.3947,0.3824 2.3487,0.9338 -0.024,0.2902 -0.2264,0.4422 -0.8314,0.4782 -1.5927,0.088 -2.6546,1.0871 -2.8204,2.4797 -0.072,0.6035 -0.04,1.0004 0.2018,2.7465 2.1824,14.3969 4.3948,29.0583 6.6685,44.0377 z m -31.3577,-0.1704 c 0,0.5536 0.09,0.9269 0.054,1.2402 -0.1001,0.871 -0.8045,1.1358 -2.6822,1.0337 -2.0044,-0.1088 -3.9464,-0.2032 -5.9513,-0.2415 -10.696,-0.2032 -14.1925,-0.8878 -17.1953,-3.7632 -3.0671,-2.7457 -4.5062,-7.6584 -3.8216,-12.3599 0.7599,-5.2215 3.5909,-7.4923 12.2349,-9.6288 1.9457,-0.5 3.7964,-1.0032 5.7098,-1.4516 5.0723,-1.3113 6.6005,-2.4749 7.0146,-5.5806 0.5312,-3.9849 -0.9493,-9.066 -3.1025,-10.6004 -1.8054,-1.2353 -4.3484,-1.5052 -10.6234,-1.3442 -1.6861,0.043 -3.6612,0.01 -5.1585,0.1228 -4.0448,0.206 -5.5738,0.3223 -6.0228,0.7579 -1.6027,1.406 -1.6035,1.4743 -1.9854,1.4746 -0.5414,9e-4 -0.8566,-0.3923 -1.0377,-1.6886 -0.1848,-0.7693 -0.3702,-1.5125 -0.4918,-2.2538 -0.089,-0.9247 -0.1568,-1.6656 -0.079,-2.2686 0.226,-1.7342 1.4505,-2.1954 5.5245,-2.1685 3.5353,0.023 7.071,-0.046 10.6027,-0.159 9.3651,-0.2993 13.7792,0.7716 16.81,4.1751 2.9024,3.4526 4.4019,9.2934 3.71,14.4383 -0.8263,6.1469 -3.7899,8.5941 -12.9456,11.0061 -1.7543,0.4005 -3.4446,0.7761 -5.1346,1.1781 -5.5508,1.4558 -6.9293,2.3363 -7.2958,4.8611 -0.3391,2.3321 0.2466,5.2515 1.2534,6.781 1.4176,1.9894 3.2613,2.4659 9.6588,2.5566 1.6245,0.023 3.2797,-0.022 4.9346,0.03 5.1882,0.1616 5.3464,0.2772 5.8974,3.2179 0.03,0.2114 0.06,0.4235 0.1225,0.6358 z m -49.3495,-28.9406 c 5.9145,9.3067 11.8613,18.5352 17.9365,27.6355 0.7246,0.995 0.8686,1.4491 0.8138,1.8145 -0.1462,0.974 -0.8362,1.1633 -4.0198,1.0763 -2.0058,-0.055 -3.9795,0 -5.9527,-0.057 -1.5279,-0.042 -2.3876,-0.3333 -2.319,-0.6956 0.031,-0.1664 0.2602,-0.2959 0.5439,-0.3543 1.1832,-0.2441 1.789,-0.7682 1.827,-1.6104 0.1009,-0.6829 -0.4629,-1.9105 -1.4698,-3.4928 -3.587,-5.5798 -7.2054,-11.1867 -10.6634,-16.9478 -3.0382,5.9791 -6.0775,12.0897 -9.0842,18.1221 -1.6806,3.3013 -2.2246,3.629 -5.8195,3.2936 -1.5908,-0.1482 -3.1796,-0.337 -4.7392,-0.551 -1.5571,-0.2135 -2.1926,-0.5338 -2.221,-1.0092 0.065,-0.1562 0.2566,-0.2301 0.5431,-0.2488 2.2935,-0.148 3.1916,-1.046 5.1619,-4.7614 3.7817,-7.4344 7.5943,-14.7889 11.3752,-22.0918 -0.9099,-5.9548 -1.9148,-11.9648 -2.92,-17.9487 -0.1199,-0.9522 -0.2151,-1.8252 -0.1743,-2.1926 0.1638,-1.4718 1.6021,-1.8717 5.0411,-1.4173 1.5866,0.2097 3.2131,0.3277 4.8353,0.5011 1.6858,0.18 2.384,0.4867 2.2527,1.0103 -0.034,0.2361 -0.3211,0.36 -0.926,0.3699 -1.4962,-0.014 -2.6873,0.8725 -2.7862,2.1643 -0.042,0.551 -0.098,0.2871 0.4581,2.5427 0.7579,4.9756 1.548,9.9255 2.3065,14.8484 z m -31.6411,24.4644 c -0.036,0.5528 0.06,0.9774 0.022,1.2393 -0.1315,0.9034 -0.8367,1.0871 -2.6798,0.7441 -1.9712,-0.3671 -3.9294,-0.6225 -5.8496,-1.082 -10.3805,-2.4854 -13.7208,-4.3276 -16.4917,-8.3568 -2.8029,-4.0034 -4.0187,-10.097 -3.2275,-15.137 0.8816,-5.6143 3.6839,-7.1476 12.0197,-6.4191 1.8777,0.077 3.7236,0.1279 5.5698,0.2047 4.9017,0.1338 6.3848,-0.7245 6.8105,-3.8466 0.552,-4.0459 -0.8492,-9.7486 -2.9321,-12.0986 -1.7039,-2.023 -4.2664,-3.1855 -10.2739,-5.4722 -1.6761,-0.6378 -3.5223,-1.5191 -4.9827,-2.007 -3.8407,-1.5281 -5.3329,-2.0693 -5.7175,-1.7637 -1.5347,0.8804 -1.5253,0.9397 -1.8839,0.7656 -0.5613,-0.2726 -0.8533,-0.8665 -1.0324,-2.4 -0.184,-0.9542 -0.3359,-1.8806 -0.5199,-2.8344 -0.1188,-1.0837 -0.1542,-1.9528 -0.1071,-2.6121 0.1309,-1.84 1.2316,-1.7263 5.1562,0.1672 3.3744,1.6277 6.7635,3.1779 10.2489,4.4963 9.0579,3.4263 13.4212,5.98 16.4435,10.4902 2.8313,4.4785 4.307,10.8215 3.572,15.8845 -0.8774,6.0415 -3.8483,7.8542 -12.797,8.1899 -1.6872,-0.046 -3.3741,-0.092 -4.9972,-0.1625 -5.4108,-0.174 -6.7196,0.3654 -7.155,3.0464 -0.3994,2.4619 0.02,5.8252 0.9275,7.8531 1.349,2.5932 3.0872,3.585 9.2886,5.1818 1.5831,0.4076 3.181,0.7548 4.7991,1.08 5.0575,1.0162 5.2126,1.1432 5.6984,4.2139 0,0.2107 0.06,0.4235 0.091,0.635"
           style="fill:#201e1e;fill-opacity:1;fill-rule:nonzero;stroke:none"
           id="path654" />
        <path
           d="m 2342.9509,1510.3071 c 4.9589,9.3073 9.9175,18.7198 14.9088,28.054 1.0037,1.9513 1.3269,2.8318 1.2149,3.4594 -0.1871,1.0511 -1.1185,1.0698 -2.929,0.052 -2.7227,-1.5304 -5.4338,-2.9999 -8.1156,-4.5436 -1.692,-0.9737 -2.2212,-1.5902 -2.0835,-2.3499 0.029,-0.1579 0.2566,-0.2302 0.5417,-0.064 0.8884,0.4195 1.6339,0.273 1.7864,-0.4524 0.1125,-0.5357 -0.1176,-1.2679 -1.4981,-3.9413 -5.1761,-10.1038 -10.353,-20.1022 -15.5625,-29.9956 0.3935,6.8632 0.7866,13.7264 1.0528,20.6124 0.1131,1.8482 0.043,3.1963 -0.093,3.8718 -0.4255,2.1036 -1.666,2.0537 -5.0313,0.1261 -1.6112,-0.9226 -3.1977,-1.8334 -4.786,-2.7396 -1.6129,-0.9202 -2.2209,-1.5112 -2.0854,-2.0863 0.062,-0.2622 0.2571,-0.3357 0.8288,-0.1355 1.4916,0.6205 2.6391,0.019 2.9398,-1.4485 0.1287,-0.6293 0.2022,-1.444 0.056,-3.1346 -0.8904,-16.8392 -2.3871,-33.4842 -4.809,-49.8909 -0.396,-2.3564 -0.4878,-3.2817 -0.4478,-3.939 0.1048,-1.7104 1.5103,-1.9587 4.3676,-0.7509 1.8073,0.7639 3.5813,1.5321 5.3626,2.334 1.7081,0.7691 2.4409,1.3842 2.2779,1.9069 -0.066,0.2619 -0.3212,0.3339 -0.798,0.2154 -1.5877,-0.5439 -2.6484,0.1389 -2.7499,1.6118 -0.042,0.6049 -0.1298,0.2863 0.4215,3.1479 0.8794,5.7433 1.6634,11.5104 2.3829,17.3545 2.5769,4.4451 5.1851,8.9178 7.7289,13.4938 5.1514,-7.5024 9.9201,-14.9893 14.4986,-22.5598 1.7093,-2.9055 1.4273,-2.8689 6.3698,-0.3274 4.0952,2.1061 4.0907,2.1149 4.6975,6.0582 0.03,0.2381 0.092,0.4771 0.1537,0.7424 0.09,0.7928 0.1624,1.3754 0.1471,1.5588 -0.09,1.0791 -0.7401,1.0077 -2.8338,0.055 -1.2685,-0.667 -1.9704,-0.4757 -2.9055,1.1063 -4.7058,7.5941 -9.7617,15.1257 -15.008,22.5992 z m -31.396,-45.3183 c 0.06,0.4496 0.1032,0.3728 0.058,0.7132 -0.055,0.4212 -0.263,0.6106 -0.5451,0.512 -0.2894,-0.1012 -0.8232,-0.5494 -0.9796,-0.9491 -1.4125,-2.5951 -2.9311,-3.8948 -12.115,-6.1024 -10.122,-2.4336 -12.7829,-1.2441 -13.1743,3.3831 -0.2381,2.814 0.045,6.5637 0.8257,12.805 0.7407,7.2153 1.8941,14.6792 2.95,18.1343 1.5832,5.3142 4.6514,7.9543 12.365,10.9321 1.9358,0.8173 3.8713,1.6606 5.8062,2.5833 2.6652,1.2061 3.4838,2.4406 3.5893,5.29 -0.034,0.2361 -0.036,0.4994 -0.01,0.7375 0.058,0.6872 0.085,1.1665 0.021,1.4766 -0.1996,0.9496 -0.9306,0.9751 -2.7706,0.082 -1.2682,-0.6151 -2.569,-1.2824 -3.8699,-1.8712 -1.7444,-0.8384 -3.437,-1.5703 -5.2038,-2.3031 -2.5174,-1.0443 -5.1401,-2.2754 -6.7249,-3.1618 -6.3428,-3.2567 -9.6205,-7.6419 -11.6603,-15.6571 -2.2008,-7.835 -4.0791,-23.9627 -3.4574,-30.9569 0.4226,-4.7582 3.0223,-8.0615 7.3921,-9.1281 2.6794,-0.6914 4.3663,-0.6455 14.3493,1.1556 0.6993,0.1511 1.3788,0.2526 2.0662,0.4516 8.8441,2.5648 9.7497,3.1655 10.1401,6.2598 0.3041,1.853 0.6086,3.7063 0.9442,5.6131 z m -51.4497,4.3682 c -5.5695,-0.2577 -11.1075,-0.4615 -16.6782,-0.5607 4.5556,7.952 8.6329,16.0492 12.4229,24.2172 1.7475,-7.9117 3.1765,-15.7793 4.2553,-23.6565 z m 0.5494,-5.2824 c 0.409,-3.5209 0.8178,-7.0412 1.2906,-10.5601 0.574,-4.3064 0.8631,-4.6273 5.1276,-4.472 1.4961,0.054 2.9599,0.1627 4.4555,0.2529 1.686,0.102 2.2583,0.2727 2.2858,0.8268 0,0.2373 -0.2264,0.4683 -0.7049,0.5871 -2.2655,0.65 -2.5243,1.2226 -3.096,5.2129 -1.63,13.3707 -3.9289,26.7494 -7.0549,40.1054 -1.1786,4.2375 -1.6282,4.5825 -5.7305,4.1661 -2.6416,-0.2684 -5.2498,-0.434 -7.8911,-0.5845 -1.7816,-0.1015 -2.1722,-0.2923 -2.0631,-0.8467 0.056,-0.2852 0.4502,-0.5675 0.9924,-0.7112 0.9258,-0.3172 1.2578,-0.6024 1.3777,-1.122 0.1763,-0.7642 0.1049,-1.2356 -0.8351,-3.2116 -7.2145,-14.1653 -15.6399,-28.2056 -24.0968,-42.2467 -0.6916,-1.1787 -0.8637,-1.709 -0.8109,-2.236 0.084,-0.8396 0.996,-1.1959 2.6509,-1.1401 2.355,0.08 4.6789,0.1695 7.0345,0.2185 1.6877,0.035 2.3643,0.279 2.2855,0.8527 -0.023,0.1678 -0.2568,0.3096 -0.5439,0.3804 -1.086,0.4451 -1.5219,0.8297 -1.6036,1.5112 -0.088,0.7373 0.093,1.343 0.9026,2.7397 1.8609,3.2093 3.7394,6.4272 5.6568,9.6684 6.8122,0.1332 13.6239,0.3189 20.3709,0.6088 z m -65.8273,11.1181 c 1.0709,5.6693 2.0149,11.3091 2.704,16.9679 2.8003,0.1817 5.5686,0.3212 8.3701,0.4127 6.8746,0.2248 8.6794,-0.6247 9.328,-4.1471 0.7129,-3.8732 -0.8257,-8.6669 -3.2933,-10.7107 -1.3918,-1.1715 -3.1085,-1.5565 -7.4996,-1.8127 -3.246,-0.1891 -6.4279,-0.4385 -9.6092,-0.7101 z m -1.2583,-6.1486 c 1.7181,0.1255 3.4359,0.3044 5.1854,0.4838 3.3599,-6.4179 6.8159,-12.9126 10.3351,-19.3529 1.4202,-2.5178 2.1235,-2.8979 5.3374,-2.7009 0.6364,0.039 1.2421,0.036 1.9414,0.079 3.151,0.1936 3.7526,0.5505 4.1514,2.5115 0.3407,1.3008 0.4309,1.9624 0.3963,2.304 -0.069,0.6831 -0.8037,1.0324 -1.8227,1.057 -2.5781,-0.07 -2.8976,0.053 -3.8993,2.0285 -2.6164,4.9362 -5.232,9.767 -7.7528,14.6795 4.9623,0.557 7.3769,1.2291 10.0057,2.9877 4.402,3.0983 6.9687,10.0273 5.8626,16.105 -0.6548,3.5995 -2.9775,6.4024 -6.2679,7.8412 -2.8109,1.241 -5.552,1.6277 -11.9812,1.4386 -5.857,-0.172 -11.7445,-0.4977 -17.5672,-0.9005 -1.7183,-0.1191 -2.3045,-0.4085 -2.1897,-0.9559 0.05,-0.2392 0.3214,-0.3866 0.8628,-0.4246 1.5288,-0.011 2.664,-0.9851 2.9475,-2.3706 0.1131,-0.5542 0.073,-1.2104 -0.076,-2.6377 -2.122,-13.9736 -4.8166,-28.0423 -7.0322,-42.2818 -0.2126,-1.3499 -0.3058,-2.6717 -0.197,-3.3789 0.2594,-1.6807 1.5109,-2.0858 4.6276,-1.5078 1.7155,0.3181 3.4316,0.6361 5.2143,0.9329 1.6192,0.2696 2.2275,0.5839 2.1563,1.1395 -0.03,0.2342 -0.1939,0.3634 -0.7988,0.3736 -1.5276,-0.094 -2.592,0.7407 -2.7856,2.0852 -0.075,0.521 -0.01,1.3439 0.2342,2.6683 0.9096,5.9811 1.9468,11.9128 3.1121,17.7959 z m -27.7197,19.5372 c 3.5609,0.6508 7.1501,1.2067 10.7796,1.6911 4.0671,0.5423 4.4512,0.8068 4.8092,3.9263 0.086,1.2677 0.2039,2.5095 0.2897,3.7772 0.063,0.1332 -0.01,0.3155 -0.036,0.5522 -0.038,0.3146 -0.195,0.4753 -0.3534,0.4648 -0.5094,-0.034 -0.8422,-0.2463 -1.2994,-0.7732 -0.9947,-1.1467 -1.7176,-1.3213 -6.2572,-1.9633 -8.8495,-1.2518 -17.7302,-3.013 -26.4155,-5.3592 -3.5796,-0.9666 -4.4414,-2.0716 -4.733,-5.5845 -0.1806,-1.3757 -0.3291,-2.7499 -0.478,-4.1247 -0.062,-0.1863 -0.061,-0.3677 -0.059,-0.5287 0,-0.3438 0.2602,-0.5247 0.5125,-0.434 0.3824,0.1375 0.7606,0.5213 1.0423,1.0826 0.8481,1.5253 1.9741,2.2921 5.3873,3.3097 2.8131,0.8388 5.7189,1.5265 8.547,2.236 -2.4934,-15.4066 -4.8254,-31.0731 -6.6464,-46.9625 -0.1151,-1.6109 -0.1576,-3.0866 -0.068,-3.6654 0.2778,-1.7827 1.5358,-2.0183 3.9875,-1.0769 1.8338,0.7038 3.7157,1.3901 5.6197,2.0772 1.6515,0.5959 2.3406,1.0953 2.2479,1.6424 -0.041,0.241 -0.2574,0.362 -0.83,0.2676 -1.5891,-0.3597 -2.6118,0.3552 -2.8466,1.7408 -0.099,0.5828 -0.072,1.0261 0.073,2.9012 1.8895,15.2059 4.3551,30.085 6.7263,44.8033"
           style="fill:#201e1e;fill-opacity:1;fill-rule:nonzero;stroke:none"
           id="path656" />
        <path
           d="m 2266.0064,1534.7217 c 5.2415,1.4873 10.5106,3.1929 15.7501,5.3586 4.2506,1.7566 4.6934,2.4208 4.8941,5.3251 0.03,0.3172 0.059,0.6344 0.1204,0.9522 -0.037,0.6579 0,1.082 -0.075,1.4213 -0.1911,0.8918 -0.8941,0.8629 -2.7383,0.031 -5.8019,-2.6178 -11.6473,-4.7982 -17.4594,-6.6699 0.3761,4.9652 0.8473,10.012 1.4448,15.1413 5.7138,2.2118 11.4659,4.7131 17.1337,7.6362 4.6395,2.3924 5.3553,3.3089 5.8408,6.4318 0.03,0.2381 0.06,0.5026 0.1216,0.7413 0.027,0.6072 0.082,1.0825 0.053,1.4247 -0.075,0.8671 -0.7035,0.7871 -2.514,-0.1738 -10.0182,-5.3189 -20.1246,-9.6792 -30.3069,-12.7134 -1.7941,-0.5343 -2.5401,-0.9127 -2.3128,-1.5126 0.034,-0.21 0.2245,-0.231 0.7974,-0.1627 1.5267,0.1735 2.6524,-0.5595 2.8482,-1.9516 0.073,-0.5241 -0.01,-1.3164 -0.1389,-2.6657 -1.3742,-14.2676 -2.2371,-28.1302 -2.8964,-41.8794 -0.024,-1.0023 0.081,-2.1322 0.2109,-2.656 0.3957,-1.5965 1.8771,-2.2581 5.076,-1.7856 7.5212,1.1115 14.9941,2.7576 22.3741,5.0644 4.7265,1.4774 5.3947,2.361 5.5653,5.0278 0.082,1.7944 0.1636,3.5626 0.2455,5.3569 -0.065,0.2356 -0.059,0.4938 -0.068,0.578 -0.025,0.2353 -0.3481,0.3745 -0.6386,0.2461 -0.4711,-0.2084 -0.6644,-0.5454 -0.9471,-1.0537 -0.8127,-1.9987 -1.5227,-2.6903 -5.9853,-4.1692 -5.7668,-1.9114 -11.6274,-3.2692 -17.477,-4.3775 0.3288,6.9931 0.6259,13.9856 1.0814,21.0348 z m -41.1307,-4.4691 c 5.4434,0.069 10.8876,0.2511 16.3275,0.6035 3.693,0.2392 4.2291,0.6687 4.3722,2.781 0.061,0.3444 0.09,0.7407 0.1188,1.1367 0.027,0.6333 0.027,1.1087 -0.01,1.2648 -0.193,0.8125 -1.0264,1.0432 -2.7768,0.8992 -5.917,-0.4864 -11.8375,-0.718 -17.7582,-0.8269 0.2838,4.5408 0.6622,9.1372 1.1052,13.7087 5.5375,0.2568 11.1104,0.5213 16.6737,1.114 4.7441,0.5051 5.5315,1.0732 5.8635,3.454 0.03,0.2908 0.091,0.5825 0.1525,0.9006 0,0.5269 0.06,0.9524 0.022,1.2656 -0.098,0.8184 -0.8476,0.8671 -2.7746,0.6358 -10.0068,-1.2016 -20.0457,-1.5358 -30.0736,-1.5848 -1.7195,-0.01 -2.3726,-0.2203 -2.2546,-0.7467 0.046,-0.2069 0.2576,-0.3883 0.8311,-0.4779 1.593,-0.1411 2.6986,-1.0417 2.9792,-2.3964 0.1165,-0.5607 0.074,-1.2895 0.05,-2.4497 -0.9816,-13.2307 -1.6452,-26.4005 -2.2441,-39.7264 -0.024,-0.9757 0.034,-1.9786 0.1783,-2.5251 0.4138,-1.573 1.896,-2.2947 4.6337,-2.2986 1.8463,0 3.6936,0.01 5.5075,0.045 1.6872,0.034 2.2989,0.2756 2.1591,0.7966 -0.057,0.2117 -0.3214,0.3869 -0.8952,0.4501 -1.529,0.1168 -2.7099,1.0871 -3.0427,2.3947 -0.1264,0.4981 -0.1046,1.2093 -0.051,2.5025 0.2699,6.3589 0.6035,12.7199 0.9054,19.0797 z m -31.9907,-4.879 c -5.4757,-0.044 -10.919,-0.1661 -16.3616,-0.3407 3.0881,8.3599 6.3051,16.5387 9.7146,24.512 2.0988,-8.034 4.3569,-16.1161 6.647,-24.1713 z m 1.5687,-5.3601 c 1.0145,-3.5829 2.0602,-7.1387 3.0427,-10.7226 1.1792,-4.3429 1.5316,-4.6372 5.7336,-4.5612 1.4641,0.026 2.9285,0.092 4.3926,0.1196 1.6872,0.032 2.2272,0.1661 2.1594,0.6914 -0.065,0.2616 -0.2902,0.5193 -0.8007,0.6636 -2.3296,0.7007 -2.6201,1.2197 -3.8285,5.2194 -4.0176,13.358 -7.9722,26.7971 -11.6719,40.2166 -1.1155,4.2919 -1.5957,4.7052 -5.768,4.8764 -2.77,0.1134 -5.51,0.1791 -8.1839,0.2775 -1.8479,0.068 -2.2669,-0.063 -2.16,-0.6386 0.058,-0.3158 0.546,-0.6177 1.0565,-0.7884 0.9261,-0.3962 1.2662,-0.7594 1.4108,-1.3056 0.216,-0.8144 0.1369,-1.2614 -0.8351,-3.2119 -6.1931,-14.5063 -11.9673,-29.7131 -17.7982,-45.8173 -0.5621,-1.4122 -0.6902,-2.0154 -0.5533,-2.5715 0.2242,-0.9105 1.1208,-1.1903 2.7768,-0.9258 2.3188,0.3707 4.5788,0.7106 6.8692,1.0046 1.6214,0.2077 2.2442,0.5323 2.0602,1.163 -0.045,0.1539 -0.2248,0.2838 -0.5436,0.3543 -1.1172,0.3649 -1.5857,0.7237 -1.7621,1.4276 -0.2171,0.8665 -0.045,1.5168 0.5179,3.0716 1.3076,3.6091 2.5557,7.2119 3.8659,10.7529 6.683,0.3405 13.3036,0.5477 20.0197,0.7044 z m -44.5439,34.0487 c -0.037,0.5788 -0.046,1.0301 -0.1057,1.3413 -0.1721,0.8958 -0.9961,1.2067 -2.8418,1.0556 -2.0038,-0.1644 -4.0181,-0.2324 -5.9496,-0.5048 -10.569,-1.4922 -13.8575,-3.0399 -16.3743,-6.9832 -2.5164,-4.0481 -3.0853,-10.3923 -1.6311,-15.7787 1.6251,-6.0202 4.7713,-7.8027 13.4958,-7.9339 1.9425,-0.079 3.8857,-0.2103 5.8283,-0.3152 5.1287,-0.3872 6.7943,-1.4409 7.677,-4.7719 1.1492,-4.3353 0.3651,-10.2948 -1.4635,-12.6116 -1.6095,-1.8624 -4.0303,-2.899 -10.1517,-4.731 -1.6291,-0.4876 -3.4937,-1.1231 -4.9864,-1.5854 -3.9376,-1.3465 -5.3671,-1.7544 -5.8797,-1.3728 -1.7277,1.1386 -1.7648,1.2276 -2.1089,1.0754 -0.4808,-0.2123 -0.758,-0.811 -0.809,-2.4729 -0.088,-1.0041 -0.081,-1.9789 -0.1372,-2.9291 0.04,-1.0797 0.042,-2.0344 0.1805,-2.7626 0.3915,-2.052 1.6336,-2.179 5.607,-0.506 3.3888,1.427 6.7648,2.7547 10.1905,3.7834 9.1222,2.7397 13.3328,5.1078 15.8769,9.6576 2.3544,4.3603 3.0424,10.9168 1.5945,16.384 -1.6983,6.412 -5.0009,8.6664 -14.4023,9.9386 -1.7524,0.163 -3.536,0.2987 -5.256,0.4099 -5.6058,0.2953 -7.0725,1.0652 -7.8616,3.8973 -0.7489,2.687 -0.6523,6.2019 0.097,8.1726 1.031,2.5849 2.7397,3.5268 9.0394,4.5164 1.6183,0.254 3.2426,0.4737 4.8977,0.6344 5.1208,0.4981 5.281,0.5655 5.4797,3.7338 0,0.2106 -0.036,0.447 -0.01,0.6588"
           style="fill:#201e1e;fill-opacity:1;fill-rule:nonzero;stroke:none"
           id="path658" />
      </g>
    </g>
  </g>
</svg>
